<svg xmlns="http://www.w3.org/2000/svg" width="1024" height="1024" viewBox="0 0 1024 1024" fill="none"><defs><linearGradient id="g" x1="0" y1="0" x2="1" y2="1"><stop offset="0%" stop-color="#C80078"/><stop offset="56%" stop-color="#DD5A12"/><stop offset="100%" stop-color="#F5AF00"/></linearGradient><linearGradient id="sheeng" x1="0" y1="0" x2="0" y2="1"><stop offset="0%" stop-color="#FFFFFF" stop-opacity="0.16"/><stop offset="55%" stop-color="#FFFFFF" stop-opacity="0"/></linearGradient></defs><clipPath id="cg"><path d="M1024.00 512.00 C1024.00 550.58 1023.96 601.68 1023.88 627.75 C1023.80 653.82 1023.68 656.63 1023.52 668.43 C1023.36 680.22 1023.17 689.37 1022.93 698.51 C1022.69 707.65 1022.41 715.56 1022.09 723.25 C1021.77 730.93 1021.41 737.88 1021.02 744.61 C1020.62 751.33 1020.18 757.56 1019.70 763.58 C1019.22 769.60 1018.70 775.26 1018.14 780.75 C1017.58 786.23 1016.98 791.43 1016.34 796.48 C1015.70 801.53 1015.02 806.35 1014.30 811.03 C1013.57 815.71 1012.81 820.21 1012.00 824.58 C1011.20 828.96 1010.35 833.17 1009.46 837.27 C1008.58 841.38 1007.65 845.34 1006.68 849.21 C1005.70 853.07 1004.69 856.81 1003.63 860.46 C1002.58 864.11 1001.48 867.65 1000.34 871.11 C999.19 874.57 998.01 877.92 996.78 881.20 C995.55 884.48 994.28 887.67 992.96 890.78 C991.64 893.89 990.28 896.92 988.88 899.88 C987.47 902.84 986.02 905.72 984.52 908.54 C983.02 911.36 981.48 914.10 979.89 916.78 C978.30 919.46 976.66 922.07 974.98 924.62 C973.29 927.17 971.56 929.66 969.78 932.09 C968.00 934.52 966.17 936.88 964.28 939.19 C962.40 941.50 960.47 943.75 958.49 945.95 C956.50 948.15 954.47 950.29 952.38 952.38 C950.29 954.47 948.15 956.50 945.95 958.49 C943.75 960.47 941.50 962.40 939.19 964.28 C936.88 966.17 934.52 968.00 932.09 969.78 C929.66 971.56 927.17 973.29 924.62 974.98 C922.07 976.66 919.46 978.30 916.78 979.89 C914.10 981.48 911.36 983.02 908.54 984.52 C905.72 986.02 902.84 987.47 899.88 988.88 C896.92 990.28 893.89 991.64 890.78 992.96 C887.67 994.28 884.48 995.55 881.20 996.78 C877.92 998.01 874.57 999.19 871.11 1000.34 C867.65 1001.48 864.11 1002.58 860.46 1003.63 C856.81 1004.69 853.07 1005.70 849.21 1006.68 C845.34 1007.65 841.38 1008.58 837.27 1009.46 C833.17 1010.35 828.96 1011.20 824.58 1012.00 C820.21 1012.81 815.71 1013.57 811.03 1014.30 C806.35 1015.02 801.53 1015.70 796.48 1016.34 C791.43 1016.98 786.23 1017.58 780.75 1018.14 C775.26 1018.70 769.60 1019.22 763.58 1019.70 C757.56 1020.18 751.33 1020.62 744.61 1021.02 C737.88 1021.41 730.93 1021.77 723.25 1022.09 C715.56 1022.41 707.65 1022.69 698.51 1022.93 C689.37 1023.17 680.22 1023.36 668.43 1023.52 C656.63 1023.68 653.82 1023.80 627.75 1023.88 C601.68 1023.96 550.58 1024.00 512.00 1024.00 C473.42 1024.00 422.32 1023.96 396.25 1023.88 C370.18 1023.80 367.37 1023.68 355.57 1023.52 C343.78 1023.36 334.63 1023.17 325.49 1022.93 C316.35 1022.69 308.44 1022.41 300.75 1022.09 C293.07 1021.77 286.12 1021.41 279.39 1021.02 C272.67 1020.62 266.44 1020.18 260.42 1019.70 C254.40 1019.22 248.74 1018.70 243.25 1018.14 C237.77 1017.58 232.57 1016.98 227.52 1016.34 C222.47 1015.70 217.65 1015.02 212.97 1014.30 C208.29 1013.57 203.79 1012.81 199.42 1012.00 C195.04 1011.20 190.83 1010.35 186.73 1009.46 C182.62 1008.58 178.66 1007.65 174.79 1006.68 C170.93 1005.70 167.19 1004.69 163.54 1003.63 C159.89 1002.58 156.35 1001.48 152.89 1000.34 C149.43 999.19 146.08 998.01 142.80 996.78 C139.52 995.55 136.33 994.28 133.22 992.96 C130.11 991.64 127.08 990.28 124.12 988.88 C121.16 987.47 118.28 986.02 115.46 984.52 C112.64 983.02 109.90 981.48 107.22 979.89 C104.54 978.30 101.93 976.66 99.38 974.98 C96.83 973.29 94.34 971.56 91.91 969.78 C89.48 968.00 87.12 966.17 84.81 964.28 C82.50 962.40 80.25 960.47 78.05 958.49 C75.85 956.50 73.71 954.47 71.62 952.38 C69.53 950.29 67.50 948.15 65.51 945.95 C63.53 943.75 61.60 941.50 59.72 939.19 C57.83 936.88 56.00 934.52 54.22 932.09 C52.44 929.66 50.71 927.17 49.02 924.62 C47.34 922.07 45.70 919.46 44.11 916.78 C42.52 914.10 40.98 911.36 39.48 908.54 C37.98 905.72 36.53 902.84 35.12 899.88 C33.72 896.92 32.36 893.89 31.04 890.78 C29.72 887.67 28.45 884.48 27.22 881.20 C25.99 877.92 24.81 874.57 23.66 871.11 C22.52 867.65 21.42 864.11 20.37 860.46 C19.31 856.81 18.30 853.07 17.32 849.21 C16.35 845.34 15.42 841.38 14.54 837.27 C13.65 833.17 12.80 828.96 12.00 824.58 C11.19 820.21 10.43 815.71 9.70 811.03 C8.98 806.35 8.30 801.53 7.66 796.48 C7.02 791.43 6.42 786.23 5.86 780.75 C5.30 775.26 4.78 769.60 4.30 763.58 C3.82 757.56 3.38 751.33 2.98 744.61 C2.59 737.88 2.23 730.93 1.91 723.25 C1.59 715.56 1.31 707.65 1.07 698.51 C0.83 689.37 0.64 680.22 0.48 668.43 C0.32 656.63 0.20 653.82 0.12 627.75 C0.04 601.68 0.00 550.58 0.00 512.00 C0.00 473.42 0.04 422.32 0.12 396.25 C0.20 370.18 0.32 367.37 0.48 355.57 C0.64 343.78 0.83 334.63 1.07 325.49 C1.31 316.35 1.59 308.44 1.91 300.75 C2.23 293.07 2.59 286.12 2.98 279.39 C3.38 272.67 3.82 266.44 4.30 260.42 C4.78 254.40 5.30 248.74 5.86 243.25 C6.42 237.77 7.02 232.57 7.66 227.52 C8.30 222.47 8.98 217.65 9.70 212.97 C10.43 208.29 11.19 203.79 12.00 199.42 C12.80 195.04 13.65 190.83 14.54 186.73 C15.42 182.62 16.35 178.66 17.32 174.79 C18.30 170.93 19.31 167.19 20.37 163.54 C21.42 159.89 22.52 156.35 23.66 152.89 C24.81 149.43 25.99 146.08 27.22 142.80 C28.45 139.52 29.72 136.33 31.04 133.22 C32.36 130.11 33.72 127.08 35.12 124.12 C36.53 121.16 37.98 118.28 39.48 115.46 C40.98 112.64 42.52 109.90 44.11 107.22 C45.70 104.54 47.34 101.93 49.02 99.38 C50.71 96.83 52.44 94.34 54.22 91.91 C56.00 89.48 57.83 87.12 59.72 84.81 C61.60 82.50 63.53 80.25 65.51 78.05 C67.50 75.85 69.53 73.71 71.62 71.62 C73.71 69.53 75.85 67.50 78.05 65.51 C80.25 63.53 82.50 61.60 84.81 59.72 C87.12 57.83 89.48 56.00 91.91 54.22 C94.34 52.44 96.83 50.71 99.38 49.02 C101.93 47.34 104.54 45.70 107.22 44.11 C109.90 42.52 112.64 40.98 115.46 39.48 C118.28 37.98 121.16 36.53 124.12 35.12 C127.08 33.72 130.11 32.36 133.22 31.04 C136.33 29.72 139.52 28.45 142.80 27.22 C146.08 25.99 149.43 24.81 152.89 23.66 C156.35 22.52 159.89 21.42 163.54 20.37 C167.19 19.31 170.93 18.30 174.79 17.32 C178.66 16.35 182.62 15.42 186.73 14.54 C190.83 13.65 195.04 12.80 199.42 12.00 C203.79 11.19 208.29 10.43 212.97 9.70 C217.65 8.98 222.47 8.30 227.52 7.66 C232.57 7.02 237.77 6.42 243.25 5.86 C248.74 5.30 254.40 4.78 260.42 4.30 C266.44 3.82 272.67 3.38 279.39 2.98 C286.12 2.59 293.07 2.23 300.75 1.91 C308.44 1.59 316.35 1.31 325.49 1.07 C334.63 0.83 343.78 0.64 355.57 0.48 C367.37 0.32 370.18 0.20 396.25 0.12 C422.32 0.04 473.42 0.00 512.00 0.00 C550.58 0.00 601.68 0.04 627.75 0.12 C653.82 0.20 656.63 0.32 668.43 0.48 C680.22 0.64 689.37 0.83 698.51 1.07 C707.65 1.31 715.56 1.59 723.25 1.91 C730.93 2.23 737.88 2.59 744.61 2.98 C751.33 3.38 757.56 3.82 763.58 4.30 C769.60 4.78 775.26 5.30 780.75 5.86 C786.23 6.42 791.43 7.02 796.48 7.66 C801.53 8.30 806.35 8.98 811.03 9.70 C815.71 10.43 820.21 11.19 824.58 12.00 C828.96 12.80 833.17 13.65 837.27 14.54 C841.38 15.42 845.34 16.35 849.21 17.32 C853.07 18.30 856.81 19.31 860.46 20.37 C864.11 21.42 867.65 22.52 871.11 23.66 C874.57 24.81 877.92 25.99 881.20 27.22 C884.48 28.45 887.67 29.72 890.78 31.04 C893.89 32.36 896.92 33.72 899.88 35.12 C902.84 36.53 905.72 37.98 908.54 39.48 C911.36 40.98 914.10 42.52 916.78 44.11 C919.46 45.70 922.07 47.34 924.62 49.02 C927.17 50.71 929.66 52.44 932.09 54.22 C934.52 56.00 936.88 57.83 939.19 59.72 C941.50 61.60 943.75 63.53 945.95 65.51 C948.15 67.50 950.29 69.53 952.38 71.62 C954.47 73.71 956.50 75.85 958.49 78.05 C960.47 80.25 962.40 82.50 964.28 84.81 C966.17 87.12 968.00 89.48 969.78 91.91 C971.56 94.34 973.29 96.83 974.98 99.38 C976.66 101.93 978.30 104.54 979.89 107.22 C981.48 109.90 983.02 112.64 984.52 115.46 C986.02 118.28 987.47 121.16 988.88 124.12 C990.28 127.08 991.64 130.11 992.96 133.22 C994.28 136.33 995.55 139.52 996.78 142.80 C998.01 146.08 999.19 149.43 1000.34 152.89 C1001.48 156.35 1002.58 159.89 1003.63 163.54 C1004.69 167.19 1005.70 170.93 1006.68 174.79 C1007.65 178.66 1008.58 182.62 1009.46 186.73 C1010.35 190.83 1011.20 195.04 1012.00 199.42 C1012.81 203.79 1013.57 208.29 1014.30 212.97 C1015.02 217.65 1015.70 222.47 1016.34 227.52 C1016.98 232.57 1017.58 237.77 1018.14 243.25 C1018.70 248.74 1019.22 254.40 1019.70 260.42 C1020.18 266.44 1020.62 272.67 1021.02 279.39 C1021.41 286.12 1021.77 293.07 1022.09 300.75 C1022.41 308.44 1022.69 316.35 1022.93 325.49 C1023.17 334.63 1023.36 343.78 1023.52 355.57 C1023.68 367.37 1023.80 370.18 1023.88 396.25 C1023.96 422.32 1024.00 473.42 1024.00 512.00 Z"/></clipPath><g clip-path="url(#cg)"><rect width="1024" height="1024" fill="url(#g)"/><rect width="1024" height="1024" fill="url(#sheeng)"/></g><g transform="translate(174.08,296.11) scale(6.25778)"><g>
 <g fill="#FFF">
  <rect x="0" y="42" width="11" height="27" rx="5.5"/>
  <rect x="16" y="32" width="11" height="37" rx="5.5"/>
  <rect x="32" y="21" width="11" height="48" rx="5.5"/>
  <rect x="0" y="53" width="27" height="6" rx="3"/>
 </g>
 <g fill="none" stroke="#FFF" stroke-linecap="round" stroke-linejoin="round">
  <path d="M53.5 63.5 L53.5 13 A7.5 7.5 0 0 1 68.5 13 L68.5 15.5" stroke-width="11"/>
  <path d="M53.5 32 L68.5 32" stroke-width="6"/>
 </g>
 <circle cx="68.5" cy="32" r="5.5" fill="#FFF"/>
 <rect x="63" y="42" width="11" height="27" rx="5.5" fill="#FFF"/>
 <g fill="none" stroke="#FFF" stroke-linecap="round" stroke-linejoin="round">
  <path d="M81.5 9.5 L81.5 19.5 L104.5 19.5" stroke-width="7"/>
  <path d="M82 31.5 L104.5 31.5" stroke-width="7"/>
  <circle cx="93" cy="54" r="11" stroke-width="8"/>
  <path d="M104 44 L104 54" stroke-width="8"/>
 </g>
</g></g></svg>